<svg width="81" height="61" viewBox="0 0 81 61" fill="none" xmlns="http://www.w3.org/2000/svg">
    <mask id="mask0_1_9" style="mask-type:luminance" maskUnits="userSpaceOnUse" x="0" y="0"
        width="81" height="61">
        <path d="M80.5242 6.10352e-05H0.000732422V60.0626H80.5242V6.10352e-05Z" fill="white" />
    </mask>
    <g mask="url(#mask0_1_9)">
        <path fill-rule="evenodd" clip-rule="evenodd"
            d="M55.2341 58.356C55.3419 59.2856 54.5919 60.0581 53.6622 60.0581H30.1609C29.2537 60.0581 28.5441 59.3485 28.5441 58.4413V25.6751C28.5441 24.8397 27.9064 24.1302 27.0666 23.9999C22.1175 23.232 6.2284 19.3428 0.0892107 2.13777C-0.270069 1.13628 0.484418 0.027007 1.5398 6.10352e-05H19.3241C34.0187 0.642273 45.044 10.0419 49.4811 22.8143L49.5081 22.7874C53.1997 33.431 54.8164 52.5626 55.2341 58.356Z"
            fill="#0C70F2" />
        <path fill-rule="evenodd" clip-rule="evenodd"
            d="M80.443 1.85933C74.6541 18.5119 62.7529 22.3742 55.8727 23.8203C55.1362 23.9326 54.4356 23.4924 54.2425 22.7829C52.0509 15.0314 49.0015 10.7829 45.045 7.12277C44.3758 6.50751 44.4027 5.42069 45.1752 4.93117C49.8054 1.86831 55.5224 0.018025 62.6586 0.00904302V6.10352e-05H79.0957C80.0657 6.10352e-05 80.7708 0.956642 80.443 1.85933Z"
            fill="#0C70F2" />
    </g>
</svg>
    