<svg width="25" height="20" viewBox="0 0 25 20" fill="none" xmlns="http://www.w3.org/2000/svg">
    <path
        d="M18.3926 13.7234C17.6222 14.8681 16.3254 15.5549 14.9323 15.5549H2.99161L0 20H14.9516C16.3383 20 17.6351 19.3132 18.4119 18.1685L24.6583 8.89032H21.6474L18.3926 13.7234Z"
        fill="#FD8320" />
    <path
        d="M18.3927 13.7234L21.6475 8.89032H18.6752L18.4119 9.27824C17.6416 10.4229 16.3448 11.1097 14.9517 11.1097H5.9833L2.9917 15.5549H14.9389C16.3255 15.5549 17.6223 14.8681 18.3927 13.7234Z"
        fill="#FF5B00" />
    <path
        d="M9.70025 0C8.31358 0 7.01037 0.686805 6.24 1.83148L0 11.1097H5.98321H14.958C16.3447 11.1097 17.6479 10.4229 18.4183 9.27822L18.6815 8.8903L21.6731 4.44515L24.6583 0H9.70025Z"
        fill="#FDA233" />
</svg>
    